<svg width="21" height="20" viewBox="0 0 21 20" fill="none" xmlns="http://www.w3.org/2000/svg">
<path d="M7.1666 18.3333H13.8333C17.1833 18.3333 17.7833 16.9917 17.9583 15.3583L18.5833 8.69167C18.8083 6.65833 18.2249 5 14.6666 5H6.33327C2.77494 5 2.1916 6.65833 2.4166 8.69167L3.0416 15.3583C3.2166 16.9917 3.8166 18.3333 7.1666 18.3333Z" stroke="#FFFFFF" stroke-width="1.5" stroke-miterlimit="10" stroke-linecap="round" stroke-linejoin="round"/>
<path d="M7.16663 5.00002V4.33335C7.16663 2.85835 7.16663 1.66669 9.83329 1.66669H11.1666C13.8333 1.66669 13.8333 2.85835 13.8333 4.33335V5.00002" stroke="#FFFFFF" stroke-width="1.5" stroke-miterlimit="10" stroke-linecap="round" stroke-linejoin="round"/>
<path d="M12.1667 10.8333V11.6667C12.1667 11.675 12.1667 11.675 12.1667 11.6833C12.1667 12.5917 12.1584 13.3333 10.5 13.3333C8.85004 13.3333 8.83337 12.6 8.83337 11.6917V10.8333C8.83337 10 8.83337 10 9.66671 10H11.3334C12.1667 10 12.1667 10 12.1667 10.8333Z" stroke="#FFFFFF" stroke-width="1.5" stroke-miterlimit="10" stroke-linecap="round" stroke-linejoin="round"/>
<path d="M18.5416 9.16669C16.6166 10.5667 14.4166 11.4 12.1666 11.6834" stroke="#FFFFFF" stroke-width="1.5" stroke-miterlimit="10" stroke-linecap="round" stroke-linejoin="round"/>
<path d="M2.68335 9.39166C4.55835 10.675 6.67502 11.45 8.83335 11.6917" stroke="#FFFFFF" stroke-width="1.5" stroke-miterlimit="10" stroke-linecap="round" stroke-linejoin="round"/>
</svg>
