<svg width="40" height="40" viewBox="0 0 40 40" fill="none" xmlns="http://www.w3.org/2000/svg">
<rect width="40" height="40" rx="20" fill="#F7F8FA"/>
<path d="M26.875 12C27.7038 12 28.4987 12.3242 29.0847 12.9012C29.6708 13.4782 30 14.2609 30 15.0769V24.9231C30 25.7391 29.6708 26.5218 29.0847 27.0988C28.4987 27.6758 27.7038 28 26.875 28H13.125C12.2962 28 11.5013 27.6758 10.9153 27.0988C10.3292 26.5218 10 25.7391 10 24.9231V15.0769C10 14.2609 10.3292 13.4782 10.9153 12.9012C11.5013 12.3242 12.2962 12 13.125 12H26.875ZM28.75 16.8751L20.3175 21.7612C20.2378 21.8073 20.1487 21.8354 20.0566 21.8435C19.9645 21.8516 19.8717 21.8395 19.785 21.808L19.6825 21.7612L11.25 16.8775V24.9231C11.25 25.4127 11.4475 25.8823 11.7992 26.2285C12.1508 26.5747 12.6277 26.7692 13.125 26.7692H26.875C27.3723 26.7692 27.8492 26.5747 28.2008 26.2285C28.5525 25.8823 28.75 25.4127 28.75 24.9231V16.8751ZM26.875 13.2308H13.125C12.6277 13.2308 12.1508 13.4253 11.7992 13.7715C11.4475 14.1177 11.25 14.5873 11.25 15.0769V15.4486L20 20.5169L28.75 15.4462V15.0769C28.75 14.5873 28.5525 14.1177 28.2008 13.7715C27.8492 13.4253 27.3723 13.2308 26.875 13.2308Z" fill="black"/>
<circle cx="28" cy="14" r="3.25" fill="#EB5757" stroke="#F7F8FA" stroke-width="1.5"/>
</svg>
