<svg width="40" height="40" viewBox="0 0 40 40" fill="none" xmlns="http://www.w3.org/2000/svg">
<rect width="40" height="40" rx="20" fill="#F6F7F9"/>
<path fill-rule="evenodd" clip-rule="evenodd" d="M20 11C16.1803 11 13.0838 14.0663 13.0838 17.8488V18.4711C13.0838 19.0869 12.8997 19.6891 12.5547 20.2015L11.5297 21.724C10.34 23.4912 11.2482 25.8932 13.3174 26.4519C13.9917 26.6341 14.6717 26.7881 15.3556 26.9141L15.3573 26.9186C16.0436 28.7319 17.8778 30 20 30C22.1221 30 23.9563 28.7319 24.6426 26.9186L24.6443 26.9141C25.3282 26.7881 26.0083 26.6341 26.6826 26.4519C28.7518 25.8932 29.66 23.4912 28.4703 21.724L27.4453 20.2015C27.1003 19.6891 26.9162 19.0869 26.9162 18.4711V17.8488C26.9162 14.0663 23.8197 11 20 11ZM23.0131 27.1606C21.0115 27.3974 18.9883 27.3974 16.9867 27.1605C17.6212 28.0633 18.7247 28.6744 20 28.6744C21.2751 28.6744 22.3787 28.0633 23.0131 27.1606ZM14.4224 17.8488C14.4224 14.7984 16.9196 12.3256 20 12.3256C23.0804 12.3256 25.5776 14.7984 25.5776 17.8488V18.4711C25.5776 19.3487 25.8399 20.2066 26.3315 20.9368L27.3565 22.4594C28.0394 23.4736 27.5181 24.8523 26.3304 25.1731C22.1858 26.2924 17.8142 26.2924 13.6696 25.1731C12.4819 24.8523 11.9606 23.4736 12.6435 22.4594L13.6685 20.9368C14.1601 20.2066 14.4224 19.3487 14.4224 18.4711V17.8488Z" fill="#111111"/>
<circle cx="23.9998" cy="14" r="3.25" fill="#EB5757" stroke="#F7F8FA" stroke-width="1.5"/>
</svg>
