<svg width="49" height="48" viewBox="0 0 49 48" fill="none" xmlns="http://www.w3.org/2000/svg">
<rect y="0.989563" width="49" height="46.7546" rx="10" fill="#1E89D6"/>
<path d="M31.6 32.8225L25.3 26.5554C24.8 26.9533 24.225 27.2683 23.575 27.5004C22.925 27.7325 22.2333 27.8486 21.5 27.8486C19.6833 27.8486 18.146 27.2225 16.888 25.9704C15.63 24.7183 15.0007 23.189 15 21.3825C14.9993 19.576 15.6287 18.0467 16.888 16.7946C18.1473 15.5425 19.6847 14.9164 21.5 14.9164C23.3153 14.9164 24.853 15.5425 26.113 16.7946C27.373 18.0467 28.002 19.576 28 21.3825C28 22.112 27.8833 22.8001 27.65 23.4467C27.4167 24.0933 27.1 24.6653 26.7 25.1627L33 31.4298L31.6 32.8225ZM21.5 25.859C22.75 25.859 23.8127 25.424 24.688 24.5539C25.5633 23.6838 26.0007 22.6266 26 21.3825C25.9993 20.1384 25.562 19.0816 24.688 18.2121C23.814 17.3427 22.7513 16.9073 21.5 16.906C20.2487 16.9047 19.1863 17.3401 18.313 18.2121C17.4397 19.0842 17.002 20.141 17 21.3825C16.998 22.624 17.4357 23.6811 18.313 24.5539C19.1903 25.4266 20.2527 25.8617 21.5 25.859Z" fill="white"/>
</svg>
