<svg width="15" height="14" viewBox="0 0 15 14" fill="none" xmlns="http://www.w3.org/2000/svg">
<path d="M12.75 3.48834C10.8075 3.29584 8.85333 3.19667 6.905 3.19667C5.75 3.19667 4.595 3.255 3.44 3.37167L2.25 3.48834" stroke="#EB5757" stroke-linecap="round" stroke-linejoin="round"/>
<path d="M5.45825 2.89917L5.58659 2.13501C5.67992 1.58084 5.74992 1.16667 6.73575 1.16667H8.26409C9.24992 1.16667 9.32575 1.60417 9.41325 2.14084L9.54159 2.89917" stroke="#EB5757" stroke-linecap="round" stroke-linejoin="round"/>
<path d="M11.4958 5.33167L11.1167 11.2058C11.0525 12.1217 11 12.8333 9.37248 12.8333H5.62748C3.99998 12.8333 3.94748 12.1217 3.88332 11.2058L3.50415 5.33167" stroke="#EB5757" stroke-linecap="round" stroke-linejoin="round"/>
<path d="M6.52588 9.625H8.46838" stroke="#EB5757" stroke-linecap="round" stroke-linejoin="round"/>
<path d="M6.04175 7.29167H8.95841" stroke="#EB5757" stroke-linecap="round" stroke-linejoin="round"/>
</svg>
