<svg width="172" height="97" viewBox="0 0 172 97" fill="none" xmlns="http://www.w3.org/2000/svg">
<g filter="url(#filter0_d_62_3246)">
<mask id="path-1-inside-1_62_3246" fill="white">
<path fill-rule="evenodd" clip-rule="evenodd" d="M50.6962 39L45.5 30L40.3038 39H34C31.7909 39 30 40.7909 30 43V63C30 65.2091 31.7909 67 34 67H138C140.209 67 142 65.2091 142 63V43C142 40.7909 140.209 39 138 39H50.6962Z"/>
</mask>
<path fill-rule="evenodd" clip-rule="evenodd" d="M50.6962 39L45.5 30L40.3038 39H34C31.7909 39 30 40.7909 30 43V63C30 65.2091 31.7909 67 34 67H138C140.209 67 142 65.2091 142 63V43C142 40.7909 140.209 39 138 39H50.6962Z" fill="white"/>
<path d="M45.5 30L45.933 29.75L45.5 29L45.067 29.75L45.5 30ZM50.6962 39L50.2631 39.25L50.4075 39.5H50.6962V39ZM40.3038 39V39.5H40.5925L40.7369 39.25L40.3038 39ZM45.067 30.25L50.2631 39.25L51.1292 38.75L45.933 29.75L45.067 30.25ZM40.7369 39.25L45.933 30.25L45.067 29.75L39.8708 38.75L40.7369 39.25ZM34 39.5H40.3038V38.5H34V39.5ZM30.5 43C30.5 41.067 32.067 39.5 34 39.5V38.5C31.5147 38.5 29.5 40.5147 29.5 43H30.5ZM30.5 63V43H29.5V63H30.5ZM34 66.5C32.067 66.5 30.5 64.933 30.5 63H29.5C29.5 65.4853 31.5147 67.5 34 67.5V66.5ZM138 66.5H34V67.5H138V66.5ZM141.5 63C141.5 64.933 139.933 66.5 138 66.5V67.5C140.485 67.5 142.5 65.4853 142.5 63H141.5ZM141.5 43V63H142.5V43H141.5ZM138 39.5C139.933 39.5 141.5 41.067 141.5 43H142.5C142.5 40.5147 140.485 38.5 138 38.5V39.5ZM50.6962 39.5H138V38.5H50.6962V39.5Z" fill="#111111" mask="url(#path-1-inside-1_62_3246)"/>
</g>
<defs>
<filter id="filter0_d_62_3246" x="0" y="0" width="172" height="97" filterUnits="userSpaceOnUse" color-interpolation-filters="sRGB">
<feFlood flood-opacity="0" result="BackgroundImageFix"/>
<feColorMatrix in="SourceAlpha" type="matrix" values="0 0 0 0 0 0 0 0 0 0 0 0 0 0 0 0 0 0 127 0" result="hardAlpha"/>
<feOffset/>
<feGaussianBlur stdDeviation="15"/>
<feComposite in2="hardAlpha" operator="out"/>
<feColorMatrix type="matrix" values="0 0 0 0 0 0 0 0 0 0 0 0 0 0 0 0 0 0 0.1 0"/>
<feBlend mode="normal" in2="BackgroundImageFix" result="effect1_dropShadow_62_3246"/>
<feBlend mode="normal" in="SourceGraphic" in2="effect1_dropShadow_62_3246" result="shape"/>
</filter>
</defs>
</svg>
